<svg xmlns="http://www.w3.org/2000/svg" width="22.034" height="34.541" viewBox="1614.983 391.729 22.034 34.541"><path fill="#BA8F4D" d="M1626.003 426.27l-.442-.78c-.063-.11-6.395-11.272-8.154-14.54-1.117-2.08-2.422-5.473-2.422-8.197 0-6.078 4.942-11.022 11.017-11.022 6.076 0 11.02 4.945 11.02 11.023 0 2.632-1.22 6.187-2.37 8.194-2.053 3.582-8.145 14.433-8.206 14.542l-.44.78z"/><path fill="#BA8F4D" d="M1626 392.742c-5.517 0-10.004 4.49-10.004 10.01 0 2.374 1.155 5.586 2.3 7.717 1.482 2.75 6.227 11.135 7.702 13.74 1.443-2.568 6.04-10.746 7.77-13.767 1.1-1.92 2.234-5.324 2.234-7.69.002-5.52-4.485-10.01-10.002-10.01z"/><path fill="#FFF" d="M1626 407.72c-2.756 0-5-2.243-5-5s2.244-5.003 5-5.003 5 2.244 5 5.002c-.002 2.757-2.244 5-5 5z"/></svg>