<?xml version="1.0" encoding="utf-8"?>
<!-- Generator: Adobe Illustrator 15.0.0, SVG Export Plug-In . SVG Version: 6.00 Build 0)  -->
<!DOCTYPE svg PUBLIC "-//W3C//DTD SVG 1.1//EN" "http://www.w3.org/Graphics/SVG/1.1/DTD/svg11.dtd">
<svg version="1.1" id="Capa_1" xmlns="http://www.w3.org/2000/svg" xmlns:xlink="http://www.w3.org/1999/xlink" x="0px" y="0px"
	 width="22.034px" height="34.541px" viewBox="1614.983 391.729 22.034 34.541"
	 enable-background="new 1614.983 391.729 22.034 34.541" xml:space="preserve">
<path fill="#BA8F4D" d="M1626.003,426.271l-0.442-0.78c-0.064-0.112-6.396-11.273-8.155-14.542
	c-1.117-2.078-2.422-5.472-2.422-8.196c0-6.078,4.942-11.022,11.017-11.022c6.075,0,11.018,4.944,11.018,11.022
	c0,2.632-1.22,6.187-2.368,8.194c-2.054,3.582-8.146,14.433-8.207,14.542L1626.003,426.271z"/>
<path fill="#BA8F4D" d="M1626,392.742c-5.517,0-10.004,4.49-10.004,10.01c0,2.374,1.155,5.586,2.301,7.717
	c1.481,2.752,6.226,11.136,7.701,13.74c1.443-2.567,6.041-10.745,7.771-13.766c1.099-1.921,2.233-5.324,2.233-7.691
	C1636.004,397.232,1631.517,392.742,1626,392.742z"/>
<path fill="#FFFFFF" d="M1626,407.72c-2.756,0-4.999-2.243-4.999-5.001s2.243-5.002,4.999-5.002s4.999,2.244,4.999,5.002
	C1630.998,405.477,1628.756,407.72,1626,407.72z"/>
</svg>
